<?xml version="1.0" encoding="utf-8"?><!-- Uploaded to: SVG Repo, www.svgrepo.com, Generator: SVG Repo Mixer Tools -->
<svg viewBox="0 0 100 80" fill="none" xmlns="http://www.w3.org/2000/svg">
    <g xmlns="http://www.w3.org/2000/svg" id="Logo" transform="translate(-88.217 -218.648)">
    <g id="Gruppe_58" data-name="Gruppe 58" transform="translate(6)">
      <g id="Gruppe_56" data-name="Gruppe 56" transform="translate(131.648 241.273)">
        <rect id="Rechteck_49" data-name="Rechteck 49" width="21.914" height="4.952" transform="matrix(0.707, -0.707, 0.707, 0.707, 22.687, 17.829)" fill="#4a586e"/>
        <rect id="Rechteck_50" data-name="Rechteck 50" width="21.914" height="4.952" transform="matrix(0.707, -0.707, 0.707, 0.707, 0, 36.338)" fill="#4a586e"/>
        <rect id="Rechteck_51" data-name="Rechteck 51" width="32.22" height="1.95" transform="translate(4.869 44.332)" fill="#4a586e"/>
        <rect id="Rechteck_52" data-name="Rechteck 52" width="21.236" height="9.935" transform="translate(10.363 47.296)" fill="#4a586e"/>
        <path id="Pfad_54" data-name="Pfad 54" d="M162.554,277.94l-8.252-8.251,4.89-4.9-3.675-3.66-3.548,3.655,3.062,3.079-5.251,5.251a46.418,46.418,0,0,1-4.869,12.064v1.6h21.236v-1.6A36.269,36.269,0,0,1,162.554,277.94Z" transform="translate(-134.549 -243.521)" fill="#4a586e"/>
        <rect id="Rechteck_53" data-name="Rechteck 53" width="4.952" height="21.913" transform="translate(21.236 26.189) rotate(-45)" fill="#4a586e"/>
        <rect id="Rechteck_54" data-name="Rechteck 54" width="4.952" height="21.914" transform="translate(2.727 3.502) rotate(-45)" fill="#4a586e"/>
      </g>
      <g id="Gruppe_57" data-name="Gruppe 57" transform="translate(90.099 218.648)">
        <rect id="Rechteck_55" data-name="Rechteck 55" width="32.881" height="7.431" transform="translate(34.043 26.752) rotate(-45.002)" fill="#8d9fb9"/>
        <rect id="Rechteck_56" data-name="Rechteck 56" width="32.881" height="7.431" transform="translate(0 54.524) rotate(-45.001)" fill="#8d9fb9"/>
        <rect id="Rechteck_57" data-name="Rechteck 57" width="48.346" height="2.926" transform="translate(7.306 66.52)" fill="#8d9fb9"/>
        <rect id="Rechteck_58" data-name="Rechteck 58" width="31.865" height="14.908" transform="translate(15.55 70.967)" fill="#8d9fb9"/>
        <path id="Pfad_55" data-name="Pfad 55" d="M132.99,271.77l-12.381-12.381,7.336-7.346-5.513-5.493-5.324,5.485,4.594,4.619-7.879,7.879a69.728,69.728,0,0,1-7.306,18.1v2.4h31.864v-2.4A54.469,54.469,0,0,1,132.99,271.77Z" transform="translate(-90.968 -220.125)" fill="#8d9fb9"/>
        <rect id="Rechteck_59" data-name="Rechteck 59" width="7.431" height="32.881" transform="matrix(0.707, -0.707, 0.707, 0.707, 31.865, 39.297)" fill="#8d9fb9"/>
        <rect id="Rechteck_60" data-name="Rechteck 60" width="7.431" height="32.881" transform="translate(4.092 5.254) rotate(-45)" fill="#8d9fb9"/>
      </g>
    </g>
  </g>
</svg>