<svg xmlns="http://www.w3.org/2000/svg" viewBox="0 0 3000 2678" version="1.1"><path d="M 810.800 6.250 C 790.832 29.175, 13.810 944.331, 13.395 945.413 C 12.993 946.461, 13.854 946.674, 17.187 946.354 C 19.559 946.126, 80.675 942.142, 153 937.500 C 225.325 932.858, 287.313 928.786, 290.750 928.450 L 297 927.841 297 1440.859 L 297 1953.877 292.750 1954.467 C 290.413 1954.791, 241.028 1960.465, 183.006 1967.075 C 87.026 1978.011, 76.726 1979.358, 68.796 1982.015 C 50.285 1988.217, 37.189 1995.969, 24.209 2008.409 C 14.494 2017.719, 7.813 2027.321, 3.287 2038.481 L 0.034 2046.500 0.017 2078.093 C -0.002 2113.858, -0.104 2113.236, 8.509 2129.912 C 25.258 2162.342, 56.711 2183.621, 95.811 2188.974 C 103.616 2190.043, 105.144 2189.832, 197.118 2175.012 C 248.478 2166.737, 291.962 2159.698, 293.750 2159.372 L 297 2158.777 297 2294.818 L 297 2430.858 302.250 2431.917 C 312.253 2433.936, 1644.230 2677.070, 1648.356 2677.631 C 1651.614 2678.073, 1765.846 2652.500, 2182.500 2558.049 C 2474 2491.969, 2713.287 2437.670, 2714.250 2437.385 C 2715.915 2436.891, 2716 2400.673, 2716 1694.978 L 2716 953.091 2719.250 952.573 C 2722.811 952.007, 2995.415 928.958, 2998.250 928.984 C 2999.647 928.997, 3000 928.135, 3000 924.714 C 3000 920.460, 2999.568 919.945, 2942.724 856.464 C 2881.439 788.023, 2644.480 522.755, 2355.624 199.227 L 2177.749 0 1496.997 0 L 816.244 0 810.800 6.250 M 692.750 547.557 L 396 896.945 396 1419.281 L 396 1941.617 631.750 1905.328 C 953.659 1855.776, 959.630 1854.884, 973.597 1854.272 C 1014.021 1852.500, 1047.183 1866.489, 1063.363 1892.139 C 1073.726 1908.568, 1078.452 1932.606, 1076.171 1957.284 C 1072.626 1995.632, 1056.571 2021.156, 1026.500 2036.250 C 1017.024 2041.007, 1004.956 2044.687, 994.322 2046.064 C 989.470 2046.693, 853.157 2069.435, 691.405 2096.603 C 529.653 2123.772, 397.015 2146, 396.655 2146 C 396.295 2146, 396 2194.713, 396.001 2254.250 L 396.001 2362.500 439.751 2370.296 C 626.396 2403.555, 1640.420 2583.222, 1645.084 2583.860 L 1651 2584.669 1650.965 1756.084 L 1650.930 927.500 1533.865 798.500 C 1469.479 727.550, 1398.061 648.800, 1375.157 623.500 C 1079.877 297.319, 996.170 204.929, 993.116 201.835 L 989.500 198.170 692.750 547.557 M 964 830.496 C 864.764 842.581, 775.208 901.226, 713.553 994.500 C 700.421 1014.367, 695.991 1022.020, 685.567 1042.853 C 657.455 1099.033, 640.325 1160.209, 633.308 1229.482 C 631.101 1251.277, 630.787 1321.990, 632.815 1340.500 C 640.306 1408.853, 656.824 1468.807, 683.066 1522.902 C 693.578 1544.569, 699.043 1554.120, 712.590 1574.500 C 725.576 1594.034, 733.101 1603.667, 752.292 1625.320 C 816.949 1698.270, 892.186 1738.910, 981.500 1749.130 C 987.580 1749.826, 1004.128 1750.390, 1018.500 1750.393 C 1046.420 1750.397, 1059.751 1748.991, 1084.435 1743.437 C 1199.708 1717.502, 1297.532 1626.752, 1348.524 1498.444 C 1367.393 1450.964, 1379.307 1398.958, 1384.134 1343 C 1386.104 1320.156, 1385.856 1260.855, 1383.711 1242 C 1378.189 1193.450, 1368.234 1149.499, 1353.676 1109.396 C 1313.449 998.580, 1243.261 913.102, 1153.843 866.028 C 1117.692 846.996, 1072.506 833.758, 1031 830.038 C 1015.531 828.651, 976.981 828.915, 964 830.496 M 970.051 904.077 C 912.226 910.603, 854.553 941.725, 812.324 989.191 C 800.680 1002.279, 780.287 1028.669, 771.515 1042 C 740.419 1089.259, 719.541 1145.642, 710.513 1206.744 C 704.173 1249.657, 703.309 1314.501, 708.540 1354.746 C 716.585 1416.631, 740.539 1479.242, 777.310 1534.500 C 813.078 1588.251, 854.145 1626.305, 901.338 1649.427 C 919.922 1658.532, 934.035 1663.709, 953 1668.377 C 973.151 1673.336, 985.467 1674.984, 1007.500 1675.671 C 1056.590 1677.202, 1095.241 1668.095, 1134.197 1645.820 C 1171.131 1624.702, 1194.517 1603.287, 1228.609 1559.369 C 1268.450 1508.045, 1295.049 1443.726, 1305.479 1373.486 C 1310.331 1340.815, 1312.533 1281.233, 1310.080 1249 C 1303.764 1166.023, 1274.318 1089.900, 1221.828 1020.857 C 1171.838 955.102, 1110.905 916.950, 1038.369 905.987 C 1022.378 903.570, 984.039 902.498, 970.051 904.077 M 968.500 1008.676 C 953.622 1010.540, 933.600 1016.686, 919.733 1023.646 C 850.157 1058.565, 800.700 1144.421, 791.935 1245.500 C 789.498 1273.607, 791.920 1325.806, 797.085 1356.500 C 808.873 1426.551, 840.448 1490.577, 883.642 1532.014 C 919.874 1566.772, 962.955 1585.015, 1004.350 1583.130 C 1007.080 1583.005, 1006.979 1582.851, 1001.958 1579.472 C 961.813 1552.456, 930.287 1507.922, 906.943 1445.251 C 881.323 1376.468, 872.002 1288.186, 882.037 1209.343 C 893.354 1120.425, 928.818 1044.078, 974.501 1010.282 L 977.500 1008.063 974.500 1008.182 C 972.850 1008.246, 970.150 1008.469, 968.500 1008.676 M 2441 1076.384 L 2320.500 1088.537 2320.247 1280.244 L 2319.995 1471.951 2322.747 1471.462 C 2328.201 1470.493, 2563.743 1441, 2566.030 1441 C 2566.653 1441, 2567 1373.677, 2567 1252.500 L 2567 1064 2564.250 1064.115 C 2562.738 1064.179, 2507.275 1069.699, 2441 1076.384 M 2066 1108.531 C 1996.425 1115.851, 1930.388 1122.640, 1919.250 1123.618 L 1899 1125.396 1899 1326.511 L 1899 1527.626 2047.250 1509.063 L 2195.500 1490.500 2195.796 1299 C 2195.959 1193.675, 2195.810 1104.688, 2195.466 1101.250 C 2195.080 1097.394, 2194.392 1095.042, 2193.670 1095.111 C 2193.027 1095.172, 2135.575 1101.211, 2066 1108.531 M 2436.500 1577.556 C 2369.950 1587.642, 2315.162 1595.918, 2314.750 1595.947 C 2314.338 1595.976, 2314 1682.100, 2314 1787.333 L 2314 1978.665 2319.250 1977.933 C 2322.137 1977.531, 2377.418 1967.931, 2442.096 1956.601 C 2506.774 1945.270, 2559.986 1936, 2560.346 1936 C 2560.706 1936, 2561 1851.175, 2561 1747.500 C 2561 1568.601, 2560.911 1559.006, 2559.250 1559.109 C 2558.287 1559.169, 2503.050 1567.470, 2436.500 1577.556 M 2046.750 1632.852 L 1899 1651.367 1899 1852.309 L 1899 2053.250 1901.750 2052.725 C 1903.263 2052.436, 1970.088 2041.281, 2050.250 2027.935 L 2196 2003.669 2196 1809.394 C 2196 1702.542, 2195.662 1614.942, 2195.250 1614.728 C 2194.838 1614.513, 2128.012 1622.669, 2046.750 1632.852 M 2851.776 2376.980 C 2828.315 2381.927, 2809.685 2391.558, 2794.511 2406.585 C 2764.172 2436.630, 2755.896 2483.083, 2773.996 2521.727 C 2779.693 2533.891, 2787.129 2543.972, 2798.023 2554.300 C 2826.729 2581.513, 2865.618 2591.528, 2905.655 2582.019 C 2944.395 2572.819, 2973.879 2545.316, 2983.934 2509.003 C 2993.846 2473.204, 2984.392 2436.885, 2958.075 2409.664 C 2941.054 2392.059, 2920.773 2381.069, 2896.969 2376.554 C 2885.509 2374.380, 2863.107 2374.591, 2851.776 2376.980 M 2859.552 2395.652 C 2811.945 2405.855, 2784.080 2461.298, 2801.453 2511.253 C 2812.763 2543.774, 2843.109 2566, 2876.202 2566 C 2898.879 2566, 2916.843 2559.003, 2931.589 2544.426 C 2948.576 2527.633, 2957.048 2503.105, 2955.710 2474.589 C 2953.424 2425.877, 2921.405 2393.674, 2875.662 2394.082 C 2870.623 2394.126, 2863.374 2394.833, 2859.552 2395.652 M 2839 2483 L 2839 2536 2851.288 2536 L 2863.577 2536 2864.765 2518.651 C 2865.418 2509.109, 2866.531 2499.546, 2867.238 2497.401 L 2868.524 2493.500 2881.512 2493.518 C 2893.250 2493.534, 2894.894 2493.760, 2898.590 2495.862 C 2904.021 2498.951, 2905.958 2502.538, 2906.608 2510.712 C 2906.906 2514.445, 2908.565 2521.662, 2910.296 2526.750 L 2913.443 2536 2925.747 2536 L 2938.051 2536 2936.631 2533.250 C 2934.295 2528.729, 2932.962 2522.535, 2932.039 2511.905 C 2930.896 2498.741, 2928.117 2494.381, 2916.451 2487.448 C 2914.905 2486.529, 2915.429 2485.884, 2920.581 2482.366 C 2924.949 2479.382, 2927.223 2476.929, 2929.336 2472.918 C 2931.910 2468.031, 2932.148 2466.765, 2931.764 2460 C 2931.287 2451.609, 2929.764 2447.951, 2923.729 2440.703 C 2915.734 2431.101, 2910.404 2430.075, 2868.250 2430.031 L 2839 2430 2839 2483 M 2864 2458.347 L 2864 2474 2868.750 2473.969 C 2882.623 2473.879, 2896.424 2469.813, 2898.964 2465.067 C 2900.677 2461.866, 2900.170 2454.792, 2897.970 2451.182 C 2894.845 2446.057, 2889.090 2444.039, 2875.526 2443.312 L 2864 2442.694 2864 2458.347" stroke="none" fill="#146cb4" fill-rule="evenodd"/><path d="M 692.750 547.557 L 396 896.945 396 1416.473 C 396 1702.213, 396.359 1936, 396.798 1936 C 397.924 1936, 916.431 1861.750, 944.999 1857.498 C 976.734 1852.774, 992.974 1852.923, 1013.455 1858.126 C 1040.473 1864.990, 1060.444 1881.405, 1069.436 1904.139 C 1079.993 1930.832, 1078.979 1968.868, 1067.022 1994.619 C 1058.156 2013.714, 1045.506 2026.710, 1026.500 2036.250 C 1017.024 2041.007, 1004.956 2044.687, 994.322 2046.064 C 989.470 2046.693, 853.157 2069.435, 691.405 2096.603 C 529.653 2123.772, 397.015 2146, 396.655 2146 C 396.295 2146, 396 2194.713, 396.001 2254.250 L 396.001 2362.500 439.751 2370.296 C 463.813 2374.584, 743.600 2424.209, 1061.500 2480.574 C 1379.400 2536.939, 1640.963 2583.319, 1642.750 2583.640 L 1646 2584.223 1646 1755.956 L 1646 927.689 1643.277 924.094 C 1638.096 917.255, 1579.439 850.930, 1518.053 782.500 C 1443.874 699.809, 1396.249 646.881, 1352.038 598 C 1201.462 431.520, 996.222 204.983, 993.116 201.835 L 989.500 198.170 692.750 547.557 M 964 830.496 C 864.764 842.581, 775.208 901.226, 713.553 994.500 C 700.421 1014.367, 695.991 1022.020, 685.567 1042.853 C 657.455 1099.033, 640.325 1160.209, 633.308 1229.482 C 631.101 1251.277, 630.787 1321.990, 632.815 1340.500 C 638.833 1395.404, 650.475 1444.047, 668.715 1490.500 C 675.684 1508.247, 693.782 1545.484, 703.142 1561.334 C 765.473 1666.880, 856.111 1733.953, 960.008 1751.414 C 996.924 1757.618, 1036.796 1757.632, 1070.127 1751.452 C 1126.399 1741.019, 1184.847 1712.078, 1232.082 1671.259 C 1245.297 1659.839, 1269.214 1635.296, 1279.130 1622.978 C 1295.290 1602.906, 1313.356 1573.985, 1328.510 1543.928 C 1360.066 1481.341, 1377.694 1417.665, 1384.134 1343 C 1386.104 1320.156, 1385.856 1260.855, 1383.711 1242 C 1378.189 1193.450, 1368.234 1149.499, 1353.676 1109.396 C 1313.449 998.580, 1243.261 913.102, 1153.843 866.028 C 1117.692 846.996, 1072.506 833.758, 1031 830.038 C 1015.531 828.651, 976.981 828.915, 964 830.496 M 970.051 904.148 C 913.249 910.079, 854.548 941.729, 812.324 989.191 C 800.680 1002.279, 780.287 1028.669, 771.515 1042 C 740.419 1089.259, 719.541 1145.642, 710.513 1206.744 C 704.173 1249.657, 703.309 1314.501, 708.540 1354.746 C 716.585 1416.631, 740.539 1479.242, 777.310 1534.500 C 813.078 1588.251, 854.145 1626.305, 901.338 1649.427 C 926.400 1661.706, 951.239 1669.484, 978.500 1673.589 C 997.089 1676.388, 1031.587 1676.224, 1047.600 1673.261 C 1142.787 1655.643, 1209.848 1599.540, 1260.059 1495.519 C 1295.070 1422.985, 1309.147 1349.527, 1305.160 1260.153 C 1303.497 1222.862, 1300.157 1199.010, 1292.327 1168.500 C 1274.576 1099.340, 1241.051 1041.635, 1186.103 985.662 C 1145.194 943.991, 1098.855 918.231, 1045.500 907.502 C 1024.465 903.272, 992.181 901.837, 970.051 904.148 M 968.500 1008.676 C 953.622 1010.540, 933.600 1016.686, 919.733 1023.646 C 850.157 1058.565, 800.700 1144.421, 791.935 1245.500 C 789.498 1273.607, 791.920 1325.806, 797.085 1356.500 C 808.873 1426.551, 840.448 1490.577, 883.642 1532.014 C 919.932 1566.828, 962.893 1584.997, 1004.500 1583.125 L 1007.500 1582.990 1003.625 1580.644 C 999.900 1578.389, 999.842 1578.274, 1002.125 1577.663 C 1003.431 1577.313, 1006.300 1577.008, 1008.500 1576.984 L 1012.500 1576.942 1004.500 1572.717 C 957.917 1548.115, 919.331 1491.821, 897.583 1416.731 C 879.036 1352.696, 873.386 1277.316, 882.037 1209.343 C 893.354 1120.425, 928.818 1044.078, 974.501 1010.282 L 977.500 1008.063 974.500 1008.182 C 972.850 1008.246, 970.150 1008.469, 968.500 1008.676 M 2441 1076.384 L 2320.500 1088.537 2320.247 1280.244 L 2319.995 1471.951 2322.747 1471.462 C 2328.201 1470.493, 2563.743 1441, 2566.030 1441 C 2566.653 1441, 2567 1373.677, 2567 1252.500 L 2567 1064 2564.250 1064.115 C 2562.738 1064.179, 2507.275 1069.699, 2441 1076.384 M 2068.500 1110.994 C 2004.700 1116.363, 1940.463 1121.800, 1925.750 1123.076 L 1899 1125.397 1899 1326.511 L 1899 1527.626 2047.250 1509.063 L 2195.500 1490.500 2195.753 1295.750 L 2196.005 1101 2190.253 1101.117 C 2187.089 1101.181, 2132.300 1105.626, 2068.500 1110.994 M 2460.500 1574.020 C 2406.600 1582.165, 2352.713 1590.293, 2340.750 1592.082 L 2319 1595.334 2319 1786.667 C 2319 1891.900, 2319.174 1978, 2319.386 1978 C 2319.707 1978, 2547.675 1938.179, 2557.750 1936.363 L 2561 1935.777 2561 1747.389 C 2561 1597.288, 2560.746 1559.021, 2559.750 1559.105 C 2559.063 1559.163, 2514.400 1565.875, 2460.500 1574.020 M 2046.750 1632.852 L 1899 1651.367 1899 1852.309 L 1899 2053.250 1901.750 2052.725 C 1903.263 2052.436, 1970.088 2041.281, 2050.250 2027.935 L 2196 2003.669 2196 1809.394 C 2196 1702.542, 2195.662 1614.942, 2195.250 1614.728 C 2194.838 1614.513, 2128.012 1622.669, 2046.750 1632.852" stroke="none" fill="#fbfbfb" fill-rule="evenodd"/></svg>