<svg xmlns="http://www.w3.org/2000/svg" xmlns:xlink="http://www.w3.org/1999/xlink" version="1.1" id="Symbol" x="0px" y="0px" viewBox="0 0 512 512" xml:space="preserve">
<style type="text/css">
	.st0{fill-rule:evenodd;clip-rule:evenodd;fill:#FFFFFF;}
	.st1{fill:#65B6E6;}
	.st2{fill:#E45F75;}
	.st3{fill:#75912B;}
	.st4{fill:#E64111;}
	.st5{fill:#6A4669;}
	.st6{fill:#FDC300;}
	.st7{fill:#0C0C0C;}
	.st8{display:none;fill:none;stroke:#0C0C0C;stroke-miterlimit:10;}
	.st9{display:none;}
	.st10{display:inline;fill-rule:evenodd;clip-rule:evenodd;fill:#04080D;}
	.st11{fill-rule:evenodd;clip-rule:evenodd;fill:#E4302D;}
</style>
    <g>
	<path class="st0" d="M335.1,180.1c0-22-18-39.8-40.2-39.8c-18.5,0-34.1,12.4-38.8,29.3c-4.7-16.9-20.3-29.3-38.8-29.3   c-22.2,0-40.2,17.8-40.2,39.8c0,1.7,0.1,3.4,0.3,5.1c0.2,2.1,0.5,4.1,0.8,6.2c7.3,50,36.6,92.9,77.9,118.3   c41.3-25.4,70.6-68.3,77.9-118.3h0c0.3-2.1,0.6-4.3,0.8-6.5C335,183.3,335.1,181.7,335.1,180.1z"/>
        <path class="st1" d="M178.7,194.2c-1.4-8.8-2.2-17.8-2.2-26.9c0-60.3,31.8-113.1,79.6-142.6C230.6,8.9,200.5-0.2,168.3-0.2   C75.9-0.2,1,74.8,1,167.2c0,64.5,36.5,120.4,89.9,148.3C99.5,262.7,132.9,218.1,178.7,194.2z"/>
        <path class="st2" d="M256.1,309.7c-25.5,15.7-55.5,24.8-87.6,24.8c-28,0-54.3-6.8-77.5-19c-1.4,8.8-2.2,17.9-2.2,27.1   c0,92.4,75,167.3,167.4,167.3c92.4,0,167.3-75,167.3-167.5c0-9.2-0.8-18.2-2.2-27c-23.1,12.1-49.4,19-77.4,19   C311.7,334.5,281.6,325.4,256.1,309.7z"/>
        <path class="st3" d="M217.3,140.3c18.5,0,34.1,12.4,38.8,29.3c4.7-16.9,20.3-29.3,38.8-29.3c22.2,0,40.2,17.8,40.2,39.8   c0,1,0,1.9-0.1,2.9c0.5-5.2,0.8-10.6,0.8-15.9c0-60.2-31.9-113-79.6-142.5c-47.8,29.5-79.7,82.3-79.6,142.6   c0,5.2,0.3,10.3,0.7,15.4c-0.1-0.8-0.1-1.7-0.1-2.5C177.1,158.2,195.1,140.3,217.3,140.3z"/>
        <path class="st4" d="M333.6,194.2c-7.9,48.8-37,90.5-77.4,115.5c25.5,15.7,55.6,24.8,87.8,24.8c27.9,0,54.2-6.9,77.4-19   C412.7,262.7,379.4,218.1,333.6,194.2z"/>
        <path class="st5" d="M256.1,309.7c-40.5-25-69.5-66.7-77.4-115.5c-45.8,24-79.1,68.5-87.7,121.4c23.2,12.1,49.5,19,77.5,19   C200.6,334.5,230.6,325.4,256.1,309.7z"/>
        <path class="st6" d="M343.8-0.2c-32.1,0-62.2,9.1-87.6,24.8c47.8,29.5,79.6,82.2,79.6,142.5c0,5.4-0.3,10.7-0.8,15.9   c0,0.6-0.1,1.3-0.2,1.9c-0.2,2.2-0.5,4.3-0.8,6.5h0c-0.1,0.9-0.3,1.9-0.4,2.8c45.8,24,79.1,68.5,87.7,121.4   c53.5-28,89.9-83.9,89.9-148.5C511.1,74.6,436.2-0.3,343.8-0.2z"/>
</g>
    
    
    
    
    
    
</svg>